<svg width="48" height="48" viewBox="0 0 48 48" fill="none" xmlns="http://www.w3.org/2000/svg">
  <rect width="48" height="48" rx="8" fill="#7C3AED"/>
  <path d="M24 12C17.3726 12 12 17.3726 12 24C12 30.6274 17.3726 36 24 36C26.4834 36 28.7931 35.2388 30.7144 33.9364C31.2118 33.6001 31.8862 33.7562 32.1896 34.2752C32.493 34.7942 32.3159 35.4542 31.8185 35.7905C29.5613 37.3164 26.8905 38.2 24 38.2C16.1553 38.2 9.8 31.8447 9.8 24C9.8 16.1553 16.1553 9.8 24 9.8C31.8447 9.8 38.2 16.1553 38.2 24C38.2 25.1046 37.3046 26 36.2 26C35.0954 26 34.2 25.1046 34.2 24C34.2 18.3726 29.6274 14 24 14C18.3726 14 14 18.3726 14 24C14 29.6274 18.3726 34 24 34C25.1046 34 26 34.8954 26 36C26 37.1046 25.1046 38 24 38C17.3726 38 12 32.6274 12 24C12 17.3726 17.3726 12 24 12Z" fill="white"/>
  <path d="M31 24C31 27.866 27.866 31 24 31C20.134 31 17 27.866 17 24C17 20.134 20.134 17 24 17C27.866 17 31 20.134 31 24ZM24 29C26.7614 29 29 26.7614 29 24C29 21.2386 26.7614 19 24 19C21.2386 19 19 21.2386 19 24C19 26.7614 21.2386 29 24 29Z" fill="white"/>
</svg>